<svg xmlns="http://www.w3.org/2000/svg" viewBox="0 0 1200 700" font-family="'Segoe UI', Arial, sans-serif">
  <!-- Background -->
  <rect width="1200" height="700" fill="#f0f2f5"/>

  <!-- Sidebar -->
  <rect width="220" height="700" fill="#1a2236"/>
  <!-- Logo area -->
  <rect x="0" y="0" width="220" height="64" fill="#141d30"/>
  <circle cx="32" cy="32" r="14" fill="#3b82f6"/>
  <text x="54" y="37" fill="white" font-size="16" font-weight="700">Clinic360</text>
  <text x="54" y="50" fill="#64748b" font-size="10">Hospital Management</text>

  <!-- Nav items -->
  <rect x="0" y="80" width="220" height="40" fill="#3b82f6" rx="0"/>
  <rect x="8" y="92" width="4" height="16" fill="white" rx="2"/>
  <text x="24" y="105" fill="white" font-size="13" font-weight="600">Dashboard</text>

  <text x="24" y="146" fill="#94a3b8" font-size="13">Appointments</text>
  <text x="24" y="186" fill="#94a3b8" font-size="13">Patients</text>
  <text x="24" y="226" fill="#94a3b8" font-size="13">Billing</text>
  <text x="24" y="266" fill="#94a3b8" font-size="13">Doctors</text>
  <text x="24" y="306" fill="#94a3b8" font-size="13">Staff</text>
  <text x="24" y="346" fill="#94a3b8" font-size="13">Departments</text>
  <text x="24" y="386" fill="#94a3b8" font-size="13">Rooms &amp; Beds</text>
  <text x="24" y="426" fill="#94a3b8" font-size="13">Reports</text>
  <text x="24" y="466" fill="#94a3b8" font-size="13">Settings</text>

  <!-- Main content area -->
  <!-- Top bar -->
  <rect x="220" y="0" width="980" height="64" fill="white" filter="url(#shadow)"/>
  <text x="244" y="38" fill="#1e293b" font-size="18" font-weight="700">Dashboard Overview</text>
  <text x="244" y="54" fill="#94a3b8" font-size="11">Friday, 23 May 2025  ·  Last updated: 00:00 (cached)</text>
  <!-- Avatar -->
  <circle cx="1158" cy="32" r="20" fill="#3b82f6"/>
  <text x="1149" y="37" fill="white" font-size="12" font-weight="600">HS</text>

  <!-- Stats row 1 — Today -->
  <text x="244" y="100" fill="#64748b" font-size="11" font-weight="600" letter-spacing="1">TODAY</text>

  <!-- Card 1: New Patients -->
  <rect x="244" y="112" width="210" height="100" fill="white" rx="10" filter="url(#shadow)"/>
  <rect x="244" y="112" width="5" height="100" fill="#3b82f6" rx="3"/>
  <text x="264" y="140" fill="#64748b" font-size="11">New Patients</text>
  <text x="264" y="175" fill="#1e293b" font-size="34" font-weight="700">24</text>
  <text x="264" y="198" fill="#22c55e" font-size="11">↑ 12% vs yesterday</text>

  <!-- Card 2: Appointments -->
  <rect x="474" y="112" width="210" height="100" fill="white" rx="10" filter="url(#shadow)"/>
  <rect x="474" y="112" width="5" height="100" fill="#8b5cf6" rx="3"/>
  <text x="494" y="140" fill="#64748b" font-size="11">Appointments</text>
  <text x="494" y="175" fill="#1e293b" font-size="34" font-weight="700">38</text>
  <text x="494" y="198" fill="#22c55e" font-size="11">↑ 5% vs yesterday</text>

  <!-- Card 3: Revenue Today -->
  <rect x="704" y="112" width="210" height="100" fill="white" rx="10" filter="url(#shadow)"/>
  <rect x="704" y="112" width="5" height="100" fill="#22c55e" rx="3"/>
  <text x="724" y="140" fill="#64748b" font-size="11">Revenue Today</text>
  <text x="724" y="175" fill="#1e293b" font-size="34" font-weight="700">$4,820</text>
  <text x="724" y="198" fill="#22c55e" font-size="11">↑ 8% vs yesterday</text>

  <!-- Card 4: Pending Bills -->
  <rect x="934" y="112" width="246" height="100" fill="white" rx="10" filter="url(#shadow)"/>
  <rect x="934" y="112" width="5" height="100" fill="#f59e0b" rx="3"/>
  <text x="954" y="140" fill="#64748b" font-size="11">Pending Bills</text>
  <text x="954" y="175" fill="#1e293b" font-size="34" font-weight="700">17</text>
  <text x="954" y="198" fill="#f59e0b" font-size="11">$12,340 outstanding</text>

  <!-- Stats row 2 — Monthly -->
  <text x="244" y="238" fill="#64748b" font-size="11" font-weight="600" letter-spacing="1">THIS MONTH</text>

  <!-- Card 5: Monthly Revenue -->
  <rect x="244" y="250" width="320" height="90" fill="white" rx="10" filter="url(#shadow)"/>
  <rect x="244" y="250" width="5" height="90" fill="#22c55e" rx="3"/>
  <text x="264" y="277" fill="#64748b" font-size="11">Monthly Revenue</text>
  <text x="264" y="318" fill="#1e293b" font-size="32" font-weight="700">$124,580</text>

  <!-- Card 6: Monthly Patients -->
  <rect x="584" y="250" width="250" height="90" fill="white" rx="10" filter="url(#shadow)"/>
  <rect x="584" y="250" width="5" height="90" fill="#3b82f6" rx="3"/>
  <text x="604" y="277" fill="#64748b" font-size="11">Monthly Patients</text>
  <text x="604" y="318" fill="#1e293b" font-size="32" font-weight="700">312</text>

  <!-- Card 7: Total Doctors -->
  <rect x="854" y="250" width="160" height="90" fill="white" rx="10" filter="url(#shadow)"/>
  <rect x="854" y="250" width="5" height="90" fill="#8b5cf6" rx="3"/>
  <text x="874" y="277" fill="#64748b" font-size="11">Doctors</text>
  <text x="874" y="318" fill="#1e293b" font-size="32" font-weight="700">18</text>

  <!-- Card 8: Beds Available -->
  <rect x="1034" y="250" width="146" height="90" fill="white" rx="10" filter="url(#shadow)"/>
  <rect x="1034" y="250" width="5" height="90" fill="#ec4899" rx="3"/>
  <text x="1054" y="277" fill="#64748b" font-size="11">Beds</text>
  <text x="1054" y="318" fill="#1e293b" font-size="32" font-weight="700">64</text>

  <!-- Revenue chart panel -->
  <rect x="244" y="364" width="570" height="300" fill="white" rx="10" filter="url(#shadow)"/>
  <text x="268" y="394" fill="#1e293b" font-size="14" font-weight="600">Monthly Revenue (2025)</text>
  <text x="268" y="410" fill="#94a3b8" font-size="10">Paid bills only · from Redis cache</text>
  <!-- Chart bars -->
  <rect x="290" y="510" width="36" height="80" fill="#dbeafe" rx="4"/>
  <rect x="340" y="490" width="36" height="100" fill="#dbeafe" rx="4"/>
  <rect x="390" y="470" width="36" height="120" fill="#dbeafe" rx="4"/>
  <rect x="440" y="450" width="36" height="140" fill="#dbeafe" rx="4"/>
  <rect x="490" y="430" width="36" height="160" fill="#93c5fd" rx="4"/>
  <rect x="540" y="420" width="36" height="170" fill="#3b82f6" rx="4"/>
  <text x="297" y="604" fill="#94a3b8" font-size="10">Jan</text>
  <text x="347" y="604" fill="#94a3b8" font-size="10">Feb</text>
  <text x="397" y="604" fill="#94a3b8" font-size="10">Mar</text>
  <text x="447" y="604" fill="#94a3b8" font-size="10">Apr</text>
  <text x="497" y="604" fill="#94a3b8" font-size="10">May</text>
  <text x="547" y="604" fill="#94a3b8" font-size="10">Jun</text>
  <!-- Legend -->
  <rect x="268" y="622" width="12" height="12" fill="#3b82f6" rx="2"/>
  <text x="286" y="633" fill="#64748b" font-size="11">Revenue · Target: $150k/month</text>

  <!-- Recent appointments panel -->
  <rect x="834" y="364" width="346" height="300" fill="white" rx="10" filter="url(#shadow)"/>
  <text x="858" y="394" fill="#1e293b" font-size="14" font-weight="600">Upcoming Appointments</text>
  <!-- Table header -->
  <rect x="834" y="404" width="346" height="28" fill="#f8fafc" rx="0"/>
  <text x="858" y="422" fill="#94a3b8" font-size="10" font-weight="600">PATIENT</text>
  <text x="1010" y="422" fill="#94a3b8" font-size="10" font-weight="600">DOCTOR</text>
  <text x="1110" y="422" fill="#94a3b8" font-size="10" font-weight="600">STATUS</text>
  <!-- Rows -->
  <line x1="834" y1="432" x2="1180" y2="432" stroke="#f1f5f9" stroke-width="1"/>
  <text x="858" y="451" fill="#1e293b" font-size="12">Ahmed K.</text>
  <text x="1010" y="451" fill="#64748b" font-size="11">Dr. Sara</text>
  <rect x="1104" y="439" width="52" height="18" fill="#dcfce7" rx="9"/>
  <text x="1114" y="452" fill="#16a34a" font-size="10">Confirmed</text>

  <line x1="834" y1="462" x2="1180" y2="462" stroke="#f1f5f9" stroke-width="1"/>
  <text x="858" y="481" fill="#1e293b" font-size="12">Fatima N.</text>
  <text x="1010" y="481" fill="#64748b" font-size="11">Dr. Hamid</text>
  <rect x="1104" y="469" width="52" height="18" fill="#dcfce7" rx="9"/>
  <text x="1114" y="482" fill="#16a34a" font-size="10">Confirmed</text>

  <line x1="834" y1="492" x2="1180" y2="492" stroke="#f1f5f9" stroke-width="1"/>
  <text x="858" y="511" fill="#1e293b" font-size="12">Umar S.</text>
  <text x="1010" y="511" fill="#64748b" font-size="11">Dr. Sara</text>
  <rect x="1104" y="499" width="48" height="18" fill="#fef9c3" rx="9"/>
  <text x="1112" y="512" fill="#ca8a04" font-size="10">Pending</text>

  <line x1="834" y1="522" x2="1180" y2="522" stroke="#f1f5f9" stroke-width="1"/>
  <text x="858" y="541" fill="#1e293b" font-size="12">Zainab R.</text>
  <text x="1010" y="541" fill="#64748b" font-size="11">Dr. Asif</text>
  <rect x="1104" y="529" width="52" height="18" fill="#dcfce7" rx="9"/>
  <text x="1114" y="542" fill="#16a34a" font-size="10">Confirmed</text>

  <line x1="834" y1="552" x2="1180" y2="552" stroke="#f1f5f9" stroke-width="1"/>
  <text x="858" y="571" fill="#1e293b" font-size="12">Ali B.</text>
  <text x="1010" y="571" fill="#64748b" font-size="11">Dr. Hamid</text>
  <rect x="1104" y="559" width="52" height="18" fill="#fee2e2" rx="9"/>
  <text x="1112" y="572" fill="#dc2626" font-size="10">Cancelled</text>

  <line x1="834" y1="582" x2="1180" y2="582" stroke="#f1f5f9" stroke-width="1"/>
  <text x="858" y="601" fill="#1e293b" font-size="12">Maryam T.</text>
  <text x="1010" y="601" fill="#64748b" font-size="11">Dr. Sara</text>
  <rect x="1104" y="589" width="52" height="18" fill="#dcfce7" rx="9"/>
  <text x="1114" y="602" fill="#16a34a" font-size="10">Confirmed</text>

  <line x1="834" y1="612" x2="1180" y2="612" stroke="#f1f5f9" stroke-width="1"/>
  <text x="858" y="631" fill="#1e293b" font-size="12">Hassan M.</text>
  <text x="1010" y="631" fill="#64748b" font-size="11">Dr. Asif</text>
  <rect x="1104" y="619" width="48" height="18" fill="#fef9c3" rx="9"/>
  <text x="1112" y="632" fill="#ca8a04" font-size="10">Pending</text>

  <!-- Cache badge -->
  <rect x="244" y="668" width="200" height="22" fill="#dbeafe" rx="11"/>
  <text x="258" y="683" fill="#1d4ed8" font-size="10">⚡ Analytics served from Redis cache</text>

  <defs>
    <filter id="shadow" x="-5%" y="-5%" width="110%" height="120%">
      <feDropShadow dx="0" dy="2" stdDeviation="3" flood-color="#00000015"/>
    </filter>
  </defs>
</svg>
